{
  "accessors": [
    {
      "bufferView": 2,
      "componentType": 5126,
      "count": 23691,
      "max": [
        0.21376700699329376,
        0.30532199144363403,
        0.8002640008926392
      ],
      "min": [
        -0.37732499837875366,
        -0.5234299898147583,
        -0.028504999354481697
      ],
      "type": "VEC3"
    },
    {
      "bufferView": 2,
      "byteOffset": 284292,
      "componentType": 5126,
      "count": 23691,
      "max": [
        0.9999558925628662,
        0.9997510313987732,
        0.9999946355819702
      ],
      "min": [
        -0.9996021389961243,
        -0.999286413192749,
        -1.0
      ],
      "type": "VEC3"
    },
    {
      "bufferView": 1,
      "componentType": 5126,
      "count": 23691,
      "max": [
        0.9981840252876282,
        0.998045027256012
      ],
      "min": [
        0.0017900000093504786,
        0.0017890000017359853
      ],
      "type": "VEC2"
    },
    {
      "bufferView": 0,
      "componentType": 5125,
      "count": 96978,
      "type": "SCALAR"
    }
  ],
  "asset": {
    "extras": {
      "author": "EvanLegrand (https://sketchfab.com/evan4129)",
      "license": "CC-BY-4.0 (http://creativecommons.org/licenses/by/4.0/)",
      "source": "https://sketchfab.com/3d-models/bonsai-tree-scan-cad29bc99e85403690e7cee38df65d6a",
      "title": "Bonsai Tree Scan"
    },
    "generator": "Sketchfab-15.36.0",
    "version": "2.0"
  },
  "bufferViews": [
    {
      "buffer": 0,
      "byteLength": 387912,
      "name": "floatBufferViews",
      "target": 34963
    },
    {
      "buffer": 0,
      "byteLength": 189528,
      "byteOffset": 387912,
      "byteStride": 8,
      "name": "floatBufferViews",
      "target": 34962
    },
    {
      "buffer": 0,
      "byteLength": 568584,
      "byteOffset": 577440,
      "byteStride": 12,
      "name": "floatBufferViews",
      "target": 34962
    }
  ],
  "buffers": [
    {
      "byteLength": 1146024,
      "uri": "scene.bin"
    }
  ],
  "extensionsUsed": [
    "KHR_materials_specular"
  ],
  "images": [
    {
      "uri": "textures/bonsai_baseColor.png"
    },
    {
      "uri": "textures/bonsai_metallicRoughness.png"
    },
    {
      "uri": "textures/bonsai_specularf0.png"
    }
  ],
  "materials": [
    {
      "doubleSided": true,
      "extensions": {
        "KHR_materials_specular": {
          "specularColorFactor": [
            1.0,
            1.0,
            1.0
          ],
          "specularFactor": 0.16914337262742132,
          "specularTexture": {
            "index": 2
          }
        }
      },
      "name": "bonsai",
      "occlusionTexture": {
        "index": 1,
        "strength": 0.565335056259219
      },
      "pbrMetallicRoughness": {
        "baseColorTexture": {
          "index": 0
        },
        "metallicFactor": 0.0,
        "metallicRoughnessTexture": {
          "index": 1
        }
      }
    }
  ],
  "meshes": [
    {
      "name": "Object_0",
      "primitives": [
        {
          "attributes": {
            "NORMAL": 1,
            "POSITION": 0,
            "TEXCOORD_0": 2
          },
          "indices": 3,
          "material": 0,
          "mode": 4
        }
      ]
    }
  ],
  "nodes": [
    {
      "children": [
        1
      ],
      "matrix": [
        1.0,
        0.0,
        0.0,
        0.0,
        0.0,
        2.220446049250313e-16,
        -1.0,
        0.0,
        0.0,
        1.0,
        2.220446049250313e-16,
        0.0,
        0.0,
        0.0,
        0.0,
        1.0
      ],
      "name": "Sketchfab_model"
    },
    {
      "children": [
        2
      ],
      "name": "bonsai.obj.cleaner.materialmerger.gles"
    },
    {
      "mesh": 0,
      "name": "Object_2"
    }
  ],
  "samplers": [
    {
      "magFilter": 9729,
      "minFilter": 9987,
      "wrapS": 10497,
      "wrapT": 10497
    }
  ],
  "scene": 0,
  "scenes": [
    {
      "name": "Sketchfab_Scene",
      "nodes": [
        0
      ]
    }
  ],
  "textures": [
    {
      "sampler": 0,
      "source": 0
    },
    {
      "sampler": 0,
      "source": 1
    },
    {
      "sampler": 0,
      "source": 2
    }
  ]
}
